<svg width="284" height="260" viewBox="0 0 284 260" fill="none" xmlns="http://www.w3.org/2000/svg">
<path d="M284 0H0V218.269H77.4675V192.59H25.8311L25.8182 25.6787H258.182V192.59H206.545V218.269H284V0Z" fill="#0066C3"/>
<path d="M196.76 228.912L142 174.448L87.2525 228.938L56.0255 259.932H92.5969L142 210.783L191.429 259.919H228L196.76 228.912Z" fill="#0066C3"/>
<path d="M51.5691 95.1137C52.1002 95.5833 52.8083 95.8181 53.6935 95.8181C54.5787 95.8181 55.2869 95.5833 55.818 95.1137C56.3786 94.6148 56.6589 93.9692 56.6589 93.1768V75.0404C56.6589 72.81 57.072 71.2106 57.8982 70.2421C58.7244 69.2443 60.0817 68.7454 61.9701 68.7454C63.652 68.7454 64.965 69.303 65.9092 70.4182C66.8534 71.5334 67.3255 73.0741 67.3255 75.0404V93.1768C67.3255 93.9985 67.5763 94.6442 68.0779 95.1137C68.6091 95.5833 69.3172 95.8181 70.2024 95.8181C71.0876 95.8181 71.7958 95.5833 72.3269 95.1137C72.858 94.6442 73.1236 93.9985 73.1236 93.1768V75.0404C73.1236 73.0154 73.5809 71.46 74.4956 70.3742C75.4398 69.2884 76.7676 68.7454 78.479 68.7454C80.3674 68.7454 81.7247 69.2443 82.5509 70.2421C83.3771 71.2106 83.7902 72.81 83.7902 75.0404V93.1768C83.7902 93.9985 84.0557 94.6442 84.5868 95.1137C85.1179 95.5833 85.8261 95.8181 86.7113 95.8181C87.5965 95.8181 88.3046 95.5833 88.8358 95.1137C89.3964 94.6148 89.6767 93.9692 89.6767 93.1768V75.0404C89.6767 71.6361 88.703 68.9655 86.7555 67.0286C84.8081 65.0917 82.123 64.1233 78.7003 64.1233C76.9889 64.1233 75.3955 64.5195 73.9202 65.3118C72.4744 66.1042 71.2351 67.2634 70.2024 68.7894C69.1402 67.2927 67.8714 66.1482 66.3961 65.3558C64.9503 64.5341 63.4012 64.1233 61.7488 64.1233C58.326 64.1233 55.641 65.0917 53.6935 67.0286C51.7461 68.9655 50.7724 71.6361 50.7724 75.0404V93.1768C50.7724 93.9985 51.0379 94.6442 51.5691 95.1137Z" fill="#0066C3"/>
<path fill-rule="evenodd" clip-rule="evenodd" d="M100.087 94.4534C102.094 95.3632 104.38 95.8181 106.947 95.8181C109.514 95.8181 111.786 95.3632 113.763 94.4534C115.77 93.5143 117.334 92.1937 118.455 90.4916C119.576 88.7895 120.137 86.8232 120.137 84.5928C120.137 82.3624 119.576 80.3962 118.455 78.6941C117.334 76.992 115.77 75.686 113.763 74.7762C111.786 73.8371 109.514 73.3676 106.947 73.3676C104.38 73.3676 102.094 73.8371 100.087 74.7762C98.1101 75.686 96.561 76.992 95.4398 78.6941C94.3185 80.3962 93.7579 82.3624 93.7579 84.5928C93.7579 86.8232 94.3185 88.7895 95.4398 90.4916C96.561 92.1937 98.1101 93.5143 100.087 94.4534ZM112.303 89.4791C111.004 90.653 109.219 91.2399 106.947 91.2399C104.675 91.2399 102.875 90.653 101.548 89.4791C100.249 88.3052 99.6002 86.6765 99.6002 84.5928C99.6002 82.5092 100.249 80.8804 101.548 79.7065C102.875 78.5327 104.675 77.9457 106.947 77.9457C109.219 77.9457 111.004 78.5327 112.303 79.7065C113.631 80.8804 114.294 82.5092 114.294 84.5928C114.294 86.6765 113.631 88.3052 112.303 89.4791Z" fill="#0066C3"/>
<path fill-rule="evenodd" clip-rule="evenodd" d="M128.987 94.4975C130.787 95.3779 132.838 95.8181 135.139 95.8181C138.651 95.8181 141.395 94.6442 143.372 92.2964V93.1768C143.372 93.9985 143.637 94.6442 144.168 95.1137C144.7 95.5833 145.408 95.8181 146.293 95.8181C147.178 95.8181 147.871 95.598 148.373 95.1578C148.904 94.6882 149.17 94.0279 149.17 93.1768V64.6075C149.17 63.7564 148.904 63.1108 148.373 62.6706C147.871 62.201 147.178 61.9663 146.293 61.9663C145.408 61.9663 144.7 62.201 144.168 62.6706C143.637 63.1401 143.372 63.7858 143.372 64.6075L143.327 76.8012C142.236 75.6566 141.07 74.8056 139.831 74.248C138.592 73.6611 137.072 73.3676 135.272 73.3676C132.823 73.3676 130.699 73.8225 128.899 74.7322C127.099 75.642 125.712 76.9479 124.738 78.65C123.794 80.3228 123.322 82.3038 123.322 84.5928C123.322 86.8819 123.824 88.8775 124.827 90.5796C125.83 92.2818 127.217 93.5877 128.987 94.4975ZM141.424 89.4791C140.126 90.653 138.326 91.2399 136.025 91.2399C133.871 91.2399 132.189 90.653 130.979 89.4791C129.769 88.3052 129.164 86.6765 129.164 84.5928C129.164 82.5092 129.769 80.8804 130.979 79.7065C132.189 78.5327 133.871 77.9457 136.025 77.9457C138.326 77.9457 140.126 78.5327 141.424 79.7065C142.723 80.8804 143.372 82.5092 143.372 84.5928C143.372 86.6765 142.723 88.3052 141.424 89.4791Z" fill="#0066C3"/>
<path fill-rule="evenodd" clip-rule="evenodd" d="M158.686 94.4534C160.575 95.3632 162.788 95.8181 165.325 95.8181C167.214 95.8181 168.984 95.5686 170.636 95.0697C172.289 94.5708 173.735 93.8518 174.974 92.9127C175.564 92.5019 175.859 91.9443 175.859 91.2399C175.859 90.653 175.608 90.1101 175.107 89.6112C174.635 89.1416 174.148 88.9068 173.646 88.9068C173.115 88.9068 172.377 89.2003 171.433 89.7873C169.751 90.8438 167.715 91.372 165.325 91.372C163.053 91.372 161.327 90.9611 160.147 90.1394C158.996 89.2884 158.421 88.0411 158.421 86.3977H171.743C173.395 86.3977 174.664 86.0162 175.549 85.2531C176.464 84.4901 176.921 83.4043 176.921 81.9956C176.921 80.3228 176.405 78.8408 175.372 77.5495C174.369 76.2289 172.953 75.2018 171.123 74.4681C169.323 73.7344 167.243 73.3676 164.883 73.3676C161.047 73.3676 158.067 74.3654 155.942 76.361C153.847 78.3566 152.8 81.1592 152.8 84.7689C152.8 86.9993 153.301 88.9509 154.305 90.6236C155.337 92.2671 156.798 93.5437 158.686 94.4534ZM171.035 82.0837C170.828 82.2597 170.474 82.3478 169.973 82.3478H158.509C158.509 80.9685 159.07 79.868 160.191 79.0462C161.342 78.2245 162.906 77.8137 164.883 77.8137C166.86 77.8137 168.423 78.1071 169.574 78.6941C170.754 79.281 171.345 80.0881 171.345 81.1152C171.345 81.5554 171.241 81.8782 171.035 82.0837Z" fill="#0066C3"/>
<path d="M181.311 95.1137C181.813 95.5833 182.521 95.8181 183.436 95.8181C184.321 95.8181 185.029 95.5833 185.56 95.1137C186.091 94.6442 186.357 93.9985 186.357 93.1768V85.3852C186.357 83.2135 186.932 81.5114 188.083 80.2788C189.263 79.0169 190.842 78.3859 192.819 78.3859H194.324C195.268 78.3859 195.991 78.1952 196.492 77.8137C197.024 77.4028 197.289 76.8305 197.289 76.0969C197.289 75.3632 197.024 74.8056 196.492 74.4241C195.991 74.0132 195.268 73.8078 194.324 73.8078H193.35C191.934 73.8078 190.606 74.1306 189.367 74.7762C188.157 75.3925 187.095 76.2876 186.18 77.4615V76.0088C186.18 75.1871 185.929 74.5415 185.427 74.0719C184.926 73.6024 184.232 73.3676 183.347 73.3676C182.462 73.3676 181.769 73.6024 181.267 74.0719C180.795 74.5121 180.559 75.1578 180.559 76.0088V93.1768C180.559 93.9985 180.81 94.6442 181.311 95.1137Z" fill="#0066C3"/>
<path d="M200.805 95.1137C201.306 95.5833 202.014 95.8181 202.929 95.8181C203.814 95.8181 204.522 95.5833 205.054 95.1137C205.585 94.6442 205.85 93.9985 205.85 93.1768V85.3852C205.85 83.0374 206.47 81.2179 207.709 79.9266C208.948 78.606 210.689 77.9457 212.932 77.9457C214.407 77.9457 215.558 78.4153 216.384 79.3544C217.21 80.2935 217.623 81.5994 217.623 83.2722V93.1768C217.623 93.9985 217.874 94.6442 218.376 95.1137C218.877 95.5833 219.585 95.8181 220.5 95.8181C221.385 95.8181 222.094 95.5833 222.625 95.1137C223.156 94.6442 223.421 93.9985 223.421 93.1768V83.2722C223.421 80.2201 222.595 77.8137 220.943 76.0528C219.32 74.2627 217.092 73.3676 214.26 73.3676C210.63 73.3676 207.768 74.6735 205.673 77.2854V76.0088C205.673 75.1871 205.422 74.5415 204.921 74.0719C204.419 73.6024 203.726 73.3676 202.841 73.3676C201.955 73.3676 201.262 73.6024 200.76 74.0719C200.288 74.5121 200.052 75.1578 200.052 76.0088V93.1768C200.052 93.9985 200.303 94.6442 200.805 95.1137Z" fill="#0066C3"/>
<path d="M85.8825 152.891C86.4136 153.36 87.1217 153.595 88.0069 153.595C88.8921 153.595 89.6003 153.36 90.1314 152.891C90.692 152.392 90.9723 151.746 90.9723 150.954V134.226C90.9723 131.731 91.651 129.824 93.0083 128.503C94.3656 127.183 96.3425 126.522 98.9391 126.522C101.536 126.522 103.513 127.183 104.87 128.503C106.227 129.824 106.906 131.731 106.906 134.226V150.954C106.906 151.746 107.171 152.392 107.703 152.891C108.263 153.36 108.986 153.595 109.871 153.595C110.756 153.595 111.465 153.36 111.996 152.891C112.527 152.421 112.792 151.776 112.792 150.954V134.358C112.792 130.455 111.568 127.403 109.119 125.202C106.67 123.001 103.277 121.9 98.9391 121.9C94.6016 121.9 91.2084 123.001 88.7593 125.202C86.3103 127.403 85.0858 130.455 85.0858 134.358V150.954C85.0858 151.776 85.3513 152.421 85.8825 152.891Z" fill="#0066C3"/>
<path fill-rule="evenodd" clip-rule="evenodd" d="M122.509 152.23C124.398 153.14 126.611 153.595 129.148 153.595C131.036 153.595 132.807 153.346 134.459 152.847C136.112 152.348 137.557 151.629 138.797 150.69C139.387 150.279 139.682 149.721 139.682 149.017C139.682 148.43 139.431 147.887 138.929 147.388C138.457 146.919 137.971 146.684 137.469 146.684C136.938 146.684 136.2 146.977 135.256 147.564C133.574 148.621 131.538 149.149 129.148 149.149C126.876 149.149 125.15 148.738 123.97 147.916C122.819 147.065 122.244 145.818 122.244 144.175H135.566C137.218 144.175 138.487 143.793 139.372 143.03C140.287 142.267 140.744 141.181 140.744 139.773C140.744 138.1 140.228 136.618 139.195 135.327C138.192 134.006 136.776 132.979 134.946 132.245C133.146 131.511 131.066 131.145 128.705 131.145C124.87 131.145 121.889 132.142 119.765 134.138C117.67 136.134 116.623 138.936 116.623 142.546C116.623 144.776 117.124 146.728 118.127 148.401C119.16 150.044 120.621 151.321 122.509 152.23ZM134.858 139.861C134.651 140.037 134.297 140.125 133.795 140.125H122.332C122.332 138.745 122.893 137.645 124.014 136.823C125.165 136.001 126.729 135.591 128.705 135.591C130.682 135.591 132.246 135.884 133.397 136.471C134.577 137.058 135.167 137.865 135.167 138.892C135.167 139.332 135.064 139.655 134.858 139.861Z" fill="#0066C3"/>
<path d="M147.082 147.784C147.967 151.658 150.047 153.595 153.322 153.595C154.945 153.595 156.199 153.096 157.084 152.098C157.969 151.101 158.56 149.545 158.855 147.432L160.315 136.603C160.345 136.28 160.404 136.06 160.492 135.943C160.61 135.796 160.758 135.723 160.935 135.723C161.112 135.723 161.245 135.796 161.333 135.943C161.451 136.06 161.525 136.28 161.555 136.603L163.015 147.432C163.31 149.545 163.9 151.101 164.785 152.098C165.671 153.096 166.925 153.595 168.548 153.595C171.823 153.595 173.903 151.658 174.788 147.784L177.842 134.138C177.901 133.786 177.931 133.551 177.931 133.434C177.931 132.7 177.665 132.142 177.134 131.761C176.632 131.35 175.909 131.145 174.965 131.145C174.021 131.145 173.254 131.35 172.664 131.761C172.074 132.172 171.72 132.744 171.601 133.478L169.167 148.092C169.079 148.709 168.872 149.017 168.548 149.017C168.193 149.017 167.972 148.723 167.884 148.136L166.202 135.987C165.966 134.431 165.39 133.243 164.476 132.421C163.561 131.57 162.381 131.145 160.935 131.145C159.489 131.145 158.309 131.57 157.394 132.421C156.479 133.243 155.904 134.431 155.668 135.987L153.986 148.136C153.898 148.723 153.676 149.017 153.322 149.017C152.998 149.017 152.791 148.709 152.703 148.092L150.268 133.478C150.15 132.744 149.796 132.172 149.206 131.761C148.616 131.35 147.849 131.145 146.905 131.145C145.96 131.145 145.223 131.35 144.692 131.761C144.19 132.142 143.939 132.7 143.939 133.434C143.939 133.551 143.969 133.786 144.028 134.138L147.082 147.784Z" fill="#0066C3"/>
<path d="M180.695 149.501C182.937 152.23 186.434 153.595 191.184 153.595C194.283 153.595 196.687 153.037 198.399 151.922C200.11 150.778 200.966 149.281 200.966 147.432C200.966 145.701 200.376 144.307 199.195 143.25C198.045 142.194 196.023 141.225 193.132 140.345C191.332 139.787 190.004 139.347 189.148 139.024C188.322 138.701 187.747 138.393 187.422 138.1C187.098 137.806 186.935 137.469 186.935 137.087C186.935 136.119 187.968 135.635 190.034 135.635C191.125 135.635 192.129 135.781 193.043 136.075C193.987 136.368 194.755 136.794 195.345 137.351C196.053 138.056 196.835 138.408 197.691 138.408C198.222 138.408 198.738 138.247 199.24 137.924C199.948 137.484 200.302 136.911 200.302 136.207C200.302 135.708 200.11 135.209 199.726 134.71C198.93 133.624 197.661 132.759 195.92 132.113C194.179 131.467 192.232 131.145 190.078 131.145C187.275 131.145 185.076 131.673 183.483 132.729C181.89 133.786 181.093 135.238 181.093 137.087C181.093 138.731 181.772 140.11 183.129 141.225C184.486 142.311 186.788 143.353 190.034 144.351C192.099 144.996 193.471 145.525 194.15 145.935C194.828 146.346 195.168 146.845 195.168 147.432C195.168 147.902 194.755 148.298 193.928 148.621C193.102 148.944 192.084 149.105 190.875 149.105C189.458 149.105 188.263 148.9 187.289 148.489C186.345 148.048 185.372 147.329 184.368 146.332C183.808 145.774 183.203 145.495 182.554 145.495C182.082 145.495 181.595 145.657 181.093 145.979C180.355 146.508 179.987 147.124 179.987 147.828C179.987 148.327 180.223 148.885 180.695 149.501Z" fill="#0066C3"/>
</svg>
